<svg width="24" height="24" viewBox="0 0 24 24" fill="none" xmlns="http://www.w3.org/2000/svg">
<path d="M22.4231 9.118C22.3293 8.82974 22.1523 8.57568 21.9144 8.38783C21.6765 8.19998 21.3883 8.08673 21.0862 8.06237L15.5549 7.61612L13.4193 2.45143C13.3038 2.17001 13.1072 1.92929 12.8546 1.75987C12.6019 1.59046 12.3046 1.5 12.0004 1.5C11.6962 1.5 11.3989 1.59046 11.1462 1.75987C10.8936 1.92929 10.697 2.17001 10.5815 2.45143L8.44775 7.61518L2.91369 8.06237C2.61104 8.08797 2.32268 8.20231 2.08473 8.39106C1.84678 8.57982 1.66982 8.8346 1.57603 9.12348C1.48224 9.41237 1.47578 9.72251 1.55747 10.015C1.63916 10.3076 1.80536 10.5695 2.03525 10.768L6.254 14.4083L4.96869 19.8514C4.89681 20.1471 4.91441 20.4576 5.01926 20.7432C5.12411 21.0289 5.31148 21.277 5.55759 21.456C5.8037 21.635 6.09745 21.7369 6.40154 21.7486C6.70564 21.7604 7.00637 21.6815 7.26557 21.5221L11.9999 18.6083L16.7371 21.5221C16.9964 21.6796 17.2965 21.757 17.5997 21.7444C17.9028 21.7317 18.1955 21.6297 18.4408 21.451C18.686 21.2724 18.873 21.0252 18.978 20.7406C19.0831 20.4559 19.1016 20.1466 19.0312 19.8514L17.7412 14.4074L21.9599 10.7671C22.1917 10.5689 22.3594 10.3064 22.4419 10.0128C22.5243 9.71927 22.5178 9.40784 22.4231 9.118ZM20.9849 9.63081L16.4193 13.5683C16.3152 13.6581 16.2377 13.7747 16.1954 13.9055C16.1531 14.0362 16.1475 14.1761 16.1793 14.3099L17.5743 20.1974C17.5779 20.2055 17.5783 20.2147 17.5753 20.223C17.5724 20.2314 17.5663 20.2383 17.5584 20.2424C17.5415 20.2555 17.5368 20.2527 17.5228 20.2424L12.3928 17.0877C12.2746 17.015 12.1386 16.9766 11.9999 16.9766C11.8612 16.9766 11.7253 17.015 11.6071 17.0877L6.47713 20.2442C6.46307 20.2527 6.45932 20.2555 6.4415 20.2442C6.43359 20.2402 6.42753 20.2333 6.42456 20.2249C6.4216 20.2166 6.42196 20.2074 6.42557 20.1992L7.82057 14.3117C7.85236 14.178 7.84679 14.0381 7.80446 13.9073C7.76214 13.7766 7.68468 13.6599 7.58057 13.5702L3.01494 9.63268C3.00369 9.62331 2.99338 9.61487 3.00275 9.58581C3.01213 9.55675 3.01963 9.5605 3.03369 9.55862L9.02619 9.07487C9.16364 9.06308 9.29517 9.01361 9.40632 8.9319C9.51747 8.85019 9.60393 8.73941 9.65619 8.61175L11.9643 3.02331C11.9718 3.00737 11.9746 2.99987 11.9971 2.99987C12.0196 2.99987 12.0224 3.00737 12.0299 3.02331L14.3437 8.61175C14.3964 8.73946 14.4835 8.85012 14.5951 8.93152C14.7068 9.01291 14.8388 9.06187 14.9765 9.073L20.969 9.55675C20.9831 9.55675 20.9915 9.55675 20.9999 9.58393C21.0084 9.61112 20.9999 9.62143 20.9849 9.63081Z" fill="#1E293B"/>
</svg>
